<svg xmlns="http://www.w3.org/2000/svg" width="200" height="59" viewBox="0 0 200 59">
  <g fill="#FFF">
    <path d="M86.7873589 22.8541761C86.622121 22.1014259 86.3513187 21.4267148 85.9749436 20.8300226 85.5985684 20.2333303 85.1395815 19.7330344 84.5979684 19.3291196 84.0563553 18.9252049 83.4596722 18.6176835 82.8079007 18.4065463 82.1561291 18.195409 81.4722384 18.089842 80.7562077 18.089842 79.4526646 18.089842 78.3327359 18.337695 77.3963883 18.8334086 76.4600406 19.3291221 75.6935318 19.9854737 75.0968397 20.8024831 74.5001476 21.6194924 74.0595196 22.5420566 73.7749436 23.5702032 73.4903675 24.5983498 73.3480813 25.6540202 73.3480813 26.737246 73.3480813 27.8021122 73.4903675 28.8531927 73.7749436 29.8905192 74.0595196 30.9278457 74.5001476 31.8549997 75.0968397 32.672009 75.6935318 33.4890184 76.4600406 34.14537 77.3963883 34.6410835 78.3327359 35.1367971 79.4526646 35.3846501 80.7562077 35.3846501 81.6741959 35.3846501 82.5003725 35.2194148 83.234763 34.8889391 83.9691535 34.5584633 84.6025558 34.108656 85.1349887 33.5395034 85.6674217 32.9703508 86.0988695 32.3048195 86.4293454 31.5428894 86.7598212 30.7809593 86.9709553 29.9593724 87.062754 29.0781038L88.9354402 29.0781038C88.8069219 30.289848 88.5223499 31.3822374 88.0817156 32.3553047 87.6410813 33.3283721 87.0719372 34.1545489 86.3742664 34.83386 85.6765955 35.5131712 84.8550086 36.0364165 83.9094808 36.4036117 82.963953 36.770807 81.9128727 36.9544018 80.7562077 36.9544018 79.2139878 36.9544018 77.8599756 36.6744196 76.6941309 36.114447 75.5282862 35.5544743 74.5598235 34.8063252 73.7887133 33.8699774 73.0176032 32.9336296 72.4392795 31.85042 72.0537246 30.620316 71.6681698 29.3902121 71.475395 28.0958684 71.475395 26.737246 71.475395 25.3786237 71.6681698 24.08428 72.0537246 22.8541761 72.4392795 21.6240721 73.0176032 20.5362726 73.7887133 19.5907449 74.5598235 18.6452172 75.5282862 17.8924783 76.6941309 17.3325056 77.8599756 16.772533 79.2139878 16.4925508 80.7562077 16.4925508 81.6925553 16.4925508 82.60594 16.6302469 83.4963883 16.9056433 84.3868366 17.1810398 85.1946542 17.5895383 85.9198646 18.1311512 86.6450749 18.6727642 87.2509381 19.3382955 87.7374718 20.1277652 88.2240054 20.9172349 88.5315269 21.8260295 88.6600451 22.8541761L86.7873589 22.8541761zM91.8808126 16.9056433L93.7534989 16.9056433 93.7534989 27.4808126 105.182393 16.9056433 107.716027 16.9056433 98.9309255 25.0297968 108.12912 36.5688488 105.705643 36.5688488 97.5264108 26.3241535 93.7534989 29.8216704 93.7534989 36.5688488 91.8808126 36.5688488 91.8808126 16.9056433zM109.807675 16.9056433L123.38465 16.9056433 123.38465 18.5029345 111.680361 18.5029345 111.680361 25.6081264 122.641084 25.6081264 122.641084 27.2054176 111.680361 27.2054176 111.680361 34.9715576 123.522348 34.9715576 123.522348 36.5688488 109.807675 36.5688488 109.807675 16.9056433zM138.392325 36.5688488L136.795034 36.5688488 136.795034 33.8699774 136.739955 33.8699774C136.556357 34.3289714 136.285555 34.7512396 135.92754 35.1367946 135.569524 35.5223496 135.161026 35.8482304 134.702032 36.114447 134.243037 36.3806635 133.751921 36.5872077 133.228668 36.7340858 132.705415 36.8809639 132.186759 36.9544018 131.672686 36.9544018 130.58946 36.9544018 129.648537 36.7570373 128.849887 36.3623025 128.051237 35.9675676 127.385706 35.4259628 126.853273 34.7374718 126.32084 34.0489808 125.926111 33.2503432 125.669074 32.341535 125.412038 31.4327268 125.283521 30.4734437 125.283521 29.4636569 125.283521 28.45387 125.412038 27.494587 125.669074 26.5857788 125.926111 25.6769706 126.32084 24.878333 126.853273 24.189842 127.385706 23.501351 128.051237 22.9551563 128.849887 22.5512415 129.648537 22.1473268 130.58946 21.9453725 131.672686 21.9453725 132.205119 21.9453725 132.723775 22.0096307 133.228668 22.138149 133.733562 22.2666673 134.206318 22.4640318 134.646953 22.7302483 135.087587 22.9964648 135.477726 23.3223457 135.817381 23.7079007 136.157037 24.0934557 136.41866 24.543263 136.602257 25.0573363L136.657336 25.0573363 136.657336 16.9056433 138.392325 16.9056433 138.392325 36.5688488zM127.01851 29.4636569C127.01851 30.1980473 127.105718 30.9278368 127.280135 31.6530474 127.454553 32.378258 127.729945 33.0254298 128.106321 33.5945824 128.482696 34.163735 128.964632 34.627312 129.552144 34.9853273 130.139657 35.3433427 130.846497 35.5223476 131.672686 35.5223476 132.590674 35.5223476 133.366363 35.3433427 133.999774 34.9853273 134.633186 34.627312 135.147251 34.163735 135.541986 33.5945824 135.936721 33.0254298 136.221293 32.378258 136.395711 31.6530474 136.570129 30.9278368 136.657336 30.1980473 136.657336 29.4636569 136.657336 28.7292665 136.570129 27.9994769 136.395711 27.2742664 136.221293 26.5490558 135.936721 25.901884 135.541986 25.3327314 135.147251 24.7635788 134.633186 24.3000018 133.999774 23.9419865 133.366363 23.5839711 132.590674 23.4049661 131.672686 23.4049661 130.846497 23.4049661 130.139657 23.5839711 129.552144 23.9419865 128.964632 24.3000018 128.482696 24.7635788 128.106321 25.3327314 127.729945 25.901884 127.454553 26.5490558 127.280135 27.2742664 127.105718 27.9994769 127.01851 28.7292665 127.01851 29.4636569zM141.805869 16.9056433L143.540858 16.9056433 143.540858 19.6871332 141.805869 19.6871332 141.805869 16.9056433zM141.805869 22.358465L143.540858 22.358465 143.540858 36.5688488 141.805869 36.5688488 141.805869 22.358465zM149.708352 22.358465L152.6 22.358465 152.6 23.8180587 149.708352 23.8180587 149.708352 33.4018059C149.708352 33.9709585 149.78638 34.416176 149.942438 34.7374718 150.098496 35.0587676 150.488635 35.2377726 151.112867 35.2744921 151.608581 35.2744921 152.104287 35.2469529 152.6 35.1918736L152.6 36.6514673C152.342963 36.6514673 152.08593 36.660647 151.828894 36.6790068 151.571857 36.6973665 151.314824 36.7065463 151.057788 36.7065463 149.901123 36.7065463 149.093306 36.4816426 148.634312 36.0318284 148.175317 35.5820143 147.955004 34.7512476 147.973363 33.5395034L147.973363 23.8180587 145.494808 23.8180587 145.494808 22.358465 147.973363 22.358465 147.973363 18.089842 149.708352 18.089842 149.708352 22.358465zM161.190971 23.4049661C160.364781 23.4049661 159.639582 23.5793813 159.01535 23.9282167 158.391118 24.2770521 157.872463 24.7360393 157.459368 25.3051919 157.046273 25.8743445 156.734162 26.5215163 156.523025 27.2467269 156.311888 27.9719374 156.206321 28.7109067 156.206321 29.4636569 156.206321 30.2164071 156.311888 30.9553763 156.523025 31.6805869 156.734162 32.4057975 157.046273 33.0529693 157.459368 33.6221219 157.872463 34.1912745 158.391118 34.6502616 159.01535 34.9990971 159.639582 35.3479325 160.364781 35.5223476 161.190971 35.5223476 162.01716 35.5223476 162.742359 35.3479325 163.366591 34.9990971 163.990823 34.6502616 164.509479 34.1912745 164.922573 33.6221219 165.335668 33.0529693 165.647779 32.4057975 165.858916 31.6805869 166.070054 30.9553763 166.175621 30.2164071 166.175621 29.4636569 166.175621 28.7109067 166.070054 27.9719374 165.858916 27.2467269 165.647779 26.5215163 165.335668 25.8743445 164.922573 25.3051919 164.509479 24.7360393 163.990823 24.2770521 163.366591 23.9282167 162.742359 23.5793813 162.01716 23.4049661 161.190971 23.4049661zM161.190971 21.9453725C162.274196 21.9453725 163.233479 22.1473268 164.068849 22.5512415 164.904218 22.9551563 165.606468 23.4967611 166.175621 24.1760722 166.744773 24.8553834 167.176221 25.6494311 167.469977 26.5582393 167.763734 27.4670474 167.910609 28.4355103 167.910609 29.4636569 167.910609 30.4918035 167.763734 31.4602663 167.469977 32.3690745 167.176221 33.2778827 166.744773 34.0719304 166.175621 34.7512415 165.606468 35.4305527 164.904218 35.9675676 164.068849 36.3623025 163.233479 36.7570373 162.274196 36.9544018 161.190971 36.9544018 160.107745 36.9544018 159.148462 36.7570373 158.313093 36.3623025 157.477723 35.9675676 156.775473 35.4305527 156.206321 34.7512415 155.637168 34.0719304 155.20572 33.2778827 154.911964 32.3690745 154.618208 31.4602663 154.471332 30.4918035 154.471332 29.4636569 154.471332 28.4355103 154.618208 27.4670474 154.911964 26.5582393 155.20572 25.6494311 155.637168 24.8553834 156.206321 24.1760722 156.775473 23.4967611 157.477723 22.9551563 158.313093 22.5512415 159.148462 22.1473268 160.107745 21.9453725 161.190971 21.9453725zM170.580587 22.358465L172.177878 22.358465 172.177878 25.6907449 172.232957 25.6907449C172.673591 24.53408 173.357482 23.643645 174.28465 23.0194131 175.211818 22.3951812 176.317977 22.1106092 177.60316 22.1656885L177.60316 23.9006772C176.813691 23.8639577 176.097671 23.9695247 175.455079 24.2173815 174.812488 24.4652382 174.257113 24.8186584 173.788939 25.2776524 173.320765 25.7366464 172.958165 26.2828411 172.701129 26.9162528 172.444092 27.5496646 172.315576 28.2427351 172.315576 28.9954853L172.315576 36.5688488 170.580587 36.5688488 170.580587 22.358465zM195.143115 30.3173815L195.143115 19.8248307 195.088036 19.8248307 187.817607 30.3173815 195.143115 30.3173815zM186.247856 30.0970655L195.170655 17.2911964 196.740406 17.2911964 196.740406 30.3173815 199.632054 30.3173815 199.632054 31.7769752 196.740406 31.7769752 196.740406 36.5688488 195.143115 36.5688488 195.143115 31.7769752 186.247856 31.7769752 186.247856 30.0970655zM41.2636707 8.31945409C40.5002862 9.85870907 40.0711403 11.5931039 40.0711403 13.427731 40.0711403 19.7858625 45.2254244 24.9401464 51.5835558 24.9401464 51.6657133 24.9401464 51.7476704 24.9392858 51.8294176 24.9375731L51.8294176 41.061212C51.8294176 42.9967367 50.7968275 44.7852352 49.120614 45.7529973L28.7570969 57.5098795C27.0808834 58.477642 25.0157032 58.477642 23.3394897 57.5098795L2.97597266 45.7529973C1.29975915 44.7852352.267169045 42.9967367.267169045 41.061212L.267169045 17.5474479C.267169045 15.6119233 1.29975915 13.8234248 2.97597266 12.8556624L23.3394897 1.0987804C25.0157032.131018079 27.0808834.131018079 28.7570969 1.0987804L41.2636707 8.31945409zM14.8436966 19.0710719C14.0956811 19.0710719 13.4892948 19.6774582 13.4892948 20.4254737L13.4892948 21.0718367C13.4892948 21.8198521 14.0956811 22.4262385 14.8436966 22.4262385L37.7180381 22.4262385C38.4660536 22.4262385 39.07244 21.8198521 39.07244 21.0718367L39.07244 20.4254737C39.07244 19.6774582 38.4660536 19.0710719 37.7180381 19.0710719L14.8436966 19.0710719zM14.8436966 27.4132361C14.0956811 27.4132361 13.4892948 28.0196224 13.4892948 28.7676379L13.4892948 29.4140009C13.4892948 30.1620163 14.0956811 30.7684027 14.8436966 30.7684027L31.4271008 30.7684027C32.1751163 30.7684027 32.7815026 30.1620163 32.7815026 29.4140009L32.7815026 28.7676379C32.7815026 28.0196224 32.1751163 27.4132361 31.4271008 27.4132361L14.8436966 27.4132361zM14.8436966 35.7554003C14.0956811 35.7554003 13.4892948 36.3617866 13.4892948 37.1098021L13.4892948 37.7561651C13.4892948 38.5041805 14.0956811 39.1105669 14.8436966 39.1105669L37.7180381 39.1105669C38.4660536 39.1105669 39.07244 38.5041805 39.07244 37.7561651L39.07244 37.1098021C39.07244 36.3617866 38.4660536 35.7554003 37.7180381 35.7554003L14.8436966 35.7554003zM51.8092894 22.68281C46.573181 22.68281 42.3284767 18.4381056 42.3284767 13.2019974 42.3284767 7.96588916 46.573181 3.72118476 51.8092894 3.72118476 57.0453977 3.72118476 61.290102 7.96588916 61.290102 13.2019974 61.290102 18.4381056 57.0453977 22.68281 51.8092894 22.68281zM53.4230907 15.6079678L54.4223273 15.6079678 54.4223273 14.1068797 53.4127892 14.1068797 53.4127892 9.31664271 51.3422068 9.31664271 48.3754018 14.0516926 48.3754018 15.6079678 51.8057702 15.6079678 51.8057702 17.1311307 53.4230907 17.1311307 53.4230907 15.6079678zM51.8160713 11.2150777L51.8160713 14.1068797 50.0545309 14.1068797 51.785167 11.2150777 51.8160713 11.2150777z"/>
  </g>
</svg>
