<?xml version="1.0" encoding="UTF-8"?>
<svg width="132px" height="126px" viewBox="0 0 132 126" version="1.1" xmlns="http://www.w3.org/2000/svg" xmlns:xlink="http://www.w3.org/1999/xlink">
    <!-- Generator: Sketch 46.2 (44496) - http://www.bohemiancoding.com/sketch -->
    <title>logo 2</title>
    <desc>Created with Sketch.</desc>
    <defs></defs>
    <g id="headers-v2" stroke="none" stroke-width="1" fill="none" fill-rule="evenodd">
        <g id="ckeditor4" transform="translate(-622.000000, -100.000000)">
            <g id="logo-2" transform="translate(622.000000, 100.000000)">
                <g id="Group-22">
                    <g id="Group-21">
                        <path d="M88.3602501,17.6831991 C86.8454451,20.9500126 86,24.5903758 86,28.4282032 C86,42.502361 97.3699713,53.9209196 111.425626,53.999591 L111.425626,88.0717968 L111.425626,88.0717968 C111.425626,92.3589838 109.138439,96.3205081 105.425626,98.4641016 L62,123.535898 C58.2871871,125.679492 53.7128129,125.679492 50,123.535898 L6.57437416,98.4641016 L6.57437416,98.4641016 C2.86156124,96.3205081 0.574374158,92.3589838 0.574374158,88.0717968 L0.574374158,37.9282032 C0.574374158,33.6410162 2.86156124,29.6794919 6.57437416,27.5358984 L50,2.46410162 L50,2.46410162 C53.7128129,0.320508076 58.2871871,0.320508076 62,2.46410162 L62,2.46410162 L88.3602501,17.6831991 Z M32,41 C30.3431458,41 29,42.3431458 29,44 L29,45.2131148 C29,46.869969 30.3431458,48.2131148 32,48.2131148 L81,48.2131148 C82.6568542,48.2131148 84,46.869969 84,45.2131148 L84,44 C84,42.3431458 82.6568542,41 81,41 L32,41 Z M32,58.9344262 C30.3431458,58.9344262 29,60.277572 29,61.9344262 L29,63.147541 C29,64.8043952 30.3431458,66.147541 32,66.147541 L67.4754098,66.147541 C69.1322641,66.147541 70.4754098,64.8043952 70.4754098,63.147541 L70.4754098,63.147541 L70.4754098,61.9344262 C70.4754098,60.277572 69.1322641,58.9344262 67.4754098,58.9344262 L32,58.9344262 Z M32,76.8688525 C30.3431458,76.8688525 29,78.2119982 29,79.8688525 L29,81.0819672 C29,82.7388215 30.3431458,84.0819672 32,84.0819672 L81,84.0819672 C82.6568542,84.0819672 84,82.7388215 84,81.0819672 L84,79.8688525 C84,78.2119982 82.6568542,76.8688525 81,76.8688525 L32,76.8688525 Z" id="Combined-Shape" fill="#FFFFFF"></path>
                        <g id="Group-20" transform="translate(87.000000, 8.000000)"></g>
                    </g>
                </g>
                <g id="Group" transform="translate(91.000000, 9.000000)" fill="#FFFFFF">
                    <path d="M20.5,41 C9.17816263,41 0,31.8218374 0,20.5 C0,9.17816263 9.17816263,0 20.5,0 C31.8218374,0 41,9.17816263 41,20.5 C41,31.8218374 31.8218374,41 20.5,41 Z M23.8517888,26.5254237 L26,26.5254237 L26,23.2983051 L23.8296422,23.2983051 L23.8296422,13 L19.3781942,13 L13,23.179661 L13,26.5254237 L20.3747871,26.5254237 L20.3747871,29.8 L23.8517888,29.8 L23.8517888,26.5254237 Z" id="Combined-Shape"></path>
                    <polygon id="Path" points="20.3969336 17.0813559 20.330494 17.0813559 16.6098807 23.2983051 20.3969336 23.2983051"></polygon>
                </g>
            </g>
        </g>
    </g>
</svg>